<?xml version="1.0" encoding="utf-8"?>
<svg version="1.1" xmlns="http://www.w3.org/2000/svg" xmlns:xlink="http://www.w3.org/1999/xlink" x="0px" y="0px"
	 viewBox="0 0 16 16" style="enable-background:new 0 0 16 16;" xml:space="preserve">
<style type="text/css">
	.st0{fill:#666;}
</style>
<g id="Ebene_2">
</g>
<g id="Ebene_1">
	<g>
		<path class="st0" d="M12,12c0,1.1-0.9,2-2,2H4c-1.1,0-2-0.9-2-2V6c0-1.1,0.9-2,2-2h4V2H4C1.8,2,0,3.8,0,6v6c0,2.2,1.8,4,4,4h6
			c2.2,0,4-1.8,4-4V8h-2V12z"/>
	</g>
	<g>
		<rect x="10" class="st0" width="6" height="2"/>
	</g>
	<g>
		<polygon class="st0" points="14,6 14.1,0 16,0 16,6 		"/>
	</g>
	<g>
		<rect x="5.3" y="4" transform="matrix(0.7071 -0.7071 0.7071 0.7071 -0.3137 9.2426)" class="st0" width="11.3" height="2"/>
	</g>
</g>
</svg>
